<svg xmlns="http://www.w3.org/2000/svg" viewBox="0 0 64 64" role="img" aria-label="Druza">
  <rect width="64" height="64" rx="32" fill="#C98B90"/>
  <g transform="translate(32 43) scale(.52)" fill="#fff">
    <path transform="rotate(-52)" d="M0,0 C-9,-16 -6,-38 0,-48 C6,-38 9,-16 0,0Z"/>
    <path transform="rotate(-26)" d="M0,0 C-9,-16 -6,-38 0,-48 C6,-38 9,-16 0,0Z"/>
    <path d="M0,0 C-9,-16 -6,-44 0,-54 C6,-44 9,-16 0,0Z"/>
    <path transform="rotate(26)" d="M0,0 C-9,-16 -6,-38 0,-48 C6,-38 9,-16 0,0Z"/>
    <path transform="rotate(52)" d="M0,0 C-9,-16 -6,-38 0,-48 C6,-38 9,-16 0,0Z"/>
  </g>
</svg>
